# Created by FreeCAD <http://www.freecadweb.org>
v	40	7.2	0
v	40	7.2	2.5
v	40	6	0
v	40	6	2.5
v	30	7.2	2.5
v	30	7.2	0
v	30	6	0
v	30	6	2.5
v	40	0	2.5
v	40	0	0
v	40	1.2	2.5
v	40	1.2	0
v	30	0	0
v	30	0	2.5
v	30	1.2	2.5
v	30	1.2	0
v	40	2.4	2.5
v	40	2.4	0
v	40	3.6	2.5
v	40	3.6	0
v	30	2.4	0
v	30	2.4	2.5
v	30	3.6	2.5
v	30	3.6	0
v	40	9.6	0
v	40	9.6	2.5
v	40	8.4	0
v	40	8.4	2.5
v	30	9.6	2.5
v	30	9.6	0
v	30	8.4	0
v	30	8.4	2.5
vn 1.000000 0.000000 -0.000000
vn 1.000000 0.000000 0.000000
vn -1.000000 0.000000 -0.000000
vn -1.000000 -0.000000 0.000000
vn 0.000000 1.000000 0.000000
vn 0.000000 1.000000 -0.000000
vn 0.000000 -1.000000 0.000000
vn 0.000000 -1.000000 0.000000
vn 0.000000 0.000000 -1.000000
vn 0.000000 0.000000 -1.000000
vn -0.000000 0.000000 1.000000
vn 0.000000 0.000000 1.000000
vn 1.000000 -0.000000 0.000000
vn 1.000000 0.000000 0.000000
vn -1.000000 0.000000 0.000000
vn -1.000000 0.000000 0.000000
vn 0.000000 -1.000000 0.000000
vn 0.000000 -1.000000 -0.000000
vn 0.000000 1.000000 0.000000
vn 0.000000 1.000000 0.000000
vn 0.000000 0.000000 -1.000000
vn 0.000000 0.000000 -1.000000
vn 0.000000 0.000000 1.000000
vn 0.000000 0.000000 1.000000
vn 1.000000 -0.000000 0.000000
vn 1.000000 0.000000 0.000000
vn -1.000000 0.000000 0.000000
vn -1.000000 0.000000 0.000000
vn 0.000000 -1.000000 0.000000
vn 0.000000 -1.000000 -0.000000
vn 0.000000 1.000000 0.000000
vn 0.000000 1.000000 0.000000
vn 0.000000 0.000000 -1.000000
vn 0.000000 0.000000 -1.000000
vn 0.000000 0.000000 1.000000
vn 0.000000 0.000000 1.000000
vn 1.000000 0.000000 -0.000000
vn 1.000000 0.000000 0.000000
vn -1.000000 0.000000 -0.000000
vn -1.000000 -0.000000 0.000000
vn 0.000000 1.000000 0.000000
vn 0.000000 1.000000 -0.000000
vn 0.000000 -1.000000 0.000000
vn 0.000000 -1.000000 0.000000
vn 0.000000 0.000000 -1.000000
vn 0.000000 0.000000 -1.000000
vn -0.000000 0.000000 1.000000
vn 0.000000 0.000000 1.000000
g Kostka001_(Mirror_#6)
f 1//1 2//1 3//1
f 3//2 2//2 4//2
f 5//3 6//3 7//3
f 5//4 7//4 8//4
f 6//5 5//5 1//5
f 1//6 5//6 2//6
f 8//7 7//7 3//7
f 8//8 3//8 4//8
f 3//9 6//9 1//9
f 3//10 7//10 6//10
f 5//11 4//11 2//11
f 8//12 4//12 5//12
g Kostka_(Mirror_#3)
f 9//13 10//13 11//13
f 11//14 10//14 12//14
f 13//15 14//15 15//15
f 13//16 15//16 16//16
f 14//17 13//17 9//17
f 9//18 13//18 10//18
f 16//19 15//19 11//19
f 16//20 11//20 12//20
f 16//21 10//21 13//21
f 16//22 12//22 10//22
f 9//23 15//23 14//23
f 11//24 15//24 9//24
g Kostka001_(Mirror_#4)
f 17//25 18//25 19//25
f 19//26 18//26 20//26
f 21//27 22//27 23//27
f 21//28 23//28 24//28
f 22//29 21//29 17//29
f 17//30 21//30 18//30
f 24//31 23//31 19//31
f 24//32 19//32 20//32
f 24//33 18//33 21//33
f 24//34 20//34 18//34
f 17//35 23//35 22//35
f 19//36 23//36 17//36
g Kostka_(Mirror_#5)
f 25//37 26//37 27//37
f 27//38 26//38 28//38
f 29//39 30//39 31//39
f 29//40 31//40 32//40
f 30//41 29//41 25//41
f 25//42 29//42 26//42
f 32//43 31//43 27//43
f 32//44 27//44 28//44
f 27//45 30//45 25//45
f 27//46 31//46 30//46
f 29//47 28//47 26//47
f 32//48 28//48 29//48
